<?xml version="1.0" encoding="UTF-8" standalone="no"?>
<!-- Created with Inkscape (http://www.inkscape.org/) -->

<svg
   width="173.11943mm"
   height="37.461285mm"
   viewBox="0 0 173.11944 37.461284"
   version="1.1"
   id="svg1"
   inkscape:version="1.4.2 (ebf0e940d0, 2025-05-08)"
   sodipodi:docname="logo_sats4sats.svg"
   inkscape:export-filename="../logo_sats4sats.svg"
   inkscape:export-xdpi="96"
   inkscape:export-ydpi="96"
   xmlns:inkscape="http://www.inkscape.org/namespaces/inkscape"
   xmlns:sodipodi="http://sodipodi.sourceforge.net/DTD/sodipodi-0.dtd"
   xmlns="http://www.w3.org/2000/svg"
   xmlns:svg="http://www.w3.org/2000/svg">
  <sodipodi:namedview
     id="namedview1"
     pagecolor="#ffffff"
     bordercolor="#000000"
     borderopacity="0.25"
     inkscape:showpageshadow="2"
     inkscape:pageopacity="0.0"
     inkscape:pagecheckerboard="0"
     inkscape:deskcolor="#d1d1d1"
     inkscape:document-units="mm"
     inkscape:zoom="1.4253648"
     inkscape:cx="324.47834"
     inkscape:cy="133.29921"
     inkscape:window-width="1920"
     inkscape:window-height="1011"
     inkscape:window-x="0"
     inkscape:window-y="0"
     inkscape:window-maximized="1"
     inkscape:current-layer="layer1" />
  <defs
     id="defs1" />
  <g
     inkscape:label="Layer 1"
     inkscape:groupmode="layer"
     id="layer1"
     transform="translate(-18.531036,-119.83002)">
    <path
       d="m 106.69384,120.67946 -14.99305,18.95942 h 11.4653 l 0.8819,17.1538 14.11115,-18.95947 h -11.4653 z"
       fill="#f7931a"
       stroke="#f7931a"
       strokeWidth="1"
       strokeLinecap="round"
       strokeLinejoin="round"
       id="path1"
       style="stroke-width:0.353;stroke-linejoin:miter;stroke-miterlimit:4;stroke-dasharray:none" />
    <path
       style="font-weight:bold;font-size:39.2623px;font-family:'TeX Gyre Adventor';-inkscape-font-specification:'TeX Gyre Adventor Bold';fill:#f2f2f2;fill-rule:evenodd;stroke-width:0.264583"
       d="m 18.74922,140.73955 c 0.549673,5.06484 3.651394,7.42058 7.970247,7.42058 4.358115,0 7.773935,-3.25877 7.773935,-7.42058 0,-3.2195 -1.491967,-4.94704 -6.046394,-6.36049 -3.572869,-1.1386 -3.690656,-1.21713 -3.690656,-2.35574 0,-1.06008 0.863771,-1.84532 2.002377,-1.84532 1.099345,0 1.806066,0.58893 2.04164,1.72754 h 5.104099 c -0.196312,-4.08328 -3.455083,-6.51754 -7.145739,-6.51754 -4.044016,0 -7.224263,2.90541 -7.224263,6.63532 0,3.18025 1.727542,4.98632 6.046394,6.43902 3.494345,1.17787 3.690656,1.53123 3.690656,2.78762 0,1.21714 -1.020819,2.12017 -2.355737,2.12017 -1.53123,0 -2.395001,-0.78525 -2.905411,-2.63058 z m 17.707318,-3.88696 c 0,6.5568 4.593689,11.30754 10.954182,11.30754 3.062459,0 5.143361,-0.98156 7.224263,-3.3373 v 2.82689 h 4.79 v -21.75131 h -4.79 v 2.90541 c -1.806066,-2.395 -3.965493,-3.41582 -7.106476,-3.41582 -6.439017,0 -11.071969,4.82926 -11.071969,11.46459 z m 5.261148,0.11778 c 0,-3.96549 2.630574,-6.79237 6.360493,-6.79237 3.729918,0 6.399754,2.78762 6.399754,6.75311 0,3.61213 -2.355738,6.43902 -6.32123,6.43902 -3.808443,0 -6.439017,-2.59131 -6.439017,-6.39976 z m 19.827457,-6.32123 h 2.552049 v 17.00058 h 5.221886 v -17.00058 h 3.140984 v -4.75073 h -3.140984 v -7.26353 h -5.221886 v 7.26353 h -2.552049 z m 12.171279,10.09041 c 0.549672,5.06484 3.651393,7.42058 7.970246,7.42058 4.358115,0 7.773935,-3.25877 7.773935,-7.42058 0,-3.2195 -1.491967,-4.94704 -6.046394,-6.36049 -3.572869,-1.1386 -3.690656,-1.21713 -3.690656,-2.35574 0,-1.06008 0.863771,-1.84532 2.002378,-1.84532 1.099344,0 1.806065,0.58893 2.041639,1.72754 h 5.104099 c -0.196312,-4.08328 -3.455082,-6.51754 -7.145738,-6.51754 -4.044017,0 -7.224263,2.90541 -7.224263,6.63532 0,3.18025 1.727541,4.98632 6.046394,6.43902 3.494344,1.17787 3.690656,1.53123 3.690656,2.78762 0,1.21714 -1.02082,2.12017 -2.355738,2.12017 -1.53123,0 -2.395,-0.78525 -2.90541,-2.63058 z"
       id="text1"
       transform="scale(0.98836486,1.0117721)"
       aria-label="sats" />
    <path
       style="font-weight:bold;font-size:39.2623px;font-family:'TeX Gyre Adventor';-inkscape-font-specification:'TeX Gyre Adventor Bold';fill:#f2f2f2;fill-rule:evenodd;stroke-width:0.264583"
       d="m 123.19521,140.5404 c 0.54967,5.06483 3.65139,7.42057 7.97025,7.42057 4.35811,0 7.77393,-3.25877 7.77393,-7.42057 0,-3.21951 -1.49197,-4.94705 -6.04639,-6.3605 -3.57287,-1.1386 -3.69066,-1.21713 -3.69066,-2.35573 0,-1.06009 0.86377,-1.84533 2.00238,-1.84533 1.09934,0 1.80606,0.58893 2.04164,1.72754 h 5.1041 c -0.19631,-4.08328 -3.45508,-6.51754 -7.14574,-6.51754 -4.04402,0 -7.22426,2.90541 -7.22426,6.63533 0,3.18024 1.72754,4.98631 6.04639,6.43901 3.49434,1.17787 3.69066,1.53123 3.69066,2.78763 0,1.21713 -1.02082,2.12016 -2.35574,2.12016 -1.53123,0 -2.395,-0.78524 -2.90541,-2.63057 z m 17.70732,-3.88697 c 0,6.5568 4.59369,11.30754 10.95418,11.30754 3.06246,0 5.14336,-0.98156 7.22426,-3.33729 v 2.82688 h 4.79 v -21.75131 h -4.79 v 2.90541 c -1.80606,-2.395 -3.96549,-3.41582 -7.10647,-3.41582 -6.43902,0 -11.07197,4.82926 -11.07197,11.46459 z m 5.26115,0.11779 c 0,-3.9655 2.63057,-6.79238 6.36049,-6.79238 3.72992,0 6.39975,2.78762 6.39975,6.75311 0,3.61214 -2.35573,6.43902 -6.32123,6.43902 -3.80844,0 -6.43901,-2.59131 -6.43901,-6.39975 z m 19.82745,-6.32123 h 2.55205 v 17.00057 h 5.22189 v -17.00057 h 3.14098 v -4.75074 h -3.14098 v -7.26353 h -5.22189 v 7.26353 h -2.55205 z m 12.17128,10.09041 c 0.54967,5.06483 3.6514,7.42057 7.97025,7.42057 4.35811,0 7.77393,-3.25877 7.77393,-7.42057 0,-3.21951 -1.49196,-4.94705 -6.04639,-6.3605 -3.57287,-1.1386 -3.69066,-1.21713 -3.69066,-2.35573 0,-1.06009 0.86377,-1.84533 2.00238,-1.84533 1.09934,0 1.80607,0.58893 2.04164,1.72754 h 5.1041 c -0.19631,-4.08328 -3.45508,-6.51754 -7.14574,-6.51754 -4.04402,0 -7.22426,2.90541 -7.22426,6.63533 0,3.18024 1.72754,4.98631 6.04639,6.43901 3.49435,1.17787 3.69066,1.53123 3.69066,2.78763 0,1.21713 -1.02082,2.12016 -2.35574,2.12016 -1.53123,0 -2.395,-0.78524 -2.90541,-2.63057 z"
       id="text1-2"
       transform="scale(0.98836486,1.0117721)"
       aria-label="sats" />
  </g>
</svg>
